<svg width="10" height="10" viewBox="0 0 10 10" fill="none" xmlns="http://www.w3.org/2000/svg">
<path d="M8.25922 5.00042C8.25922 5.19042 8.18922 5.38042 8.03922 5.53042L4.03922 9.53042C3.74922 9.82042 3.26922 9.82042 2.97922 9.53042C2.68922 9.24042 2.68922 8.76042 2.97922 8.47042L6.44922 5.00042L2.97922 1.53042C2.68922 1.24042 2.68922 0.760424 2.97922 0.470424C3.26922 0.180424 3.74922 0.180424 4.03922 0.470424L8.03922 4.47042C8.17922 4.62042 8.25922 4.81042 8.25922 5.00042Z" fill="white"/>
<path d="M14.9987 5.01043C14.9987 7.59043 14.0287 10.0304 12.2387 11.9004C10.3987 13.8304 7.90872 14.9304 5.23872 15.0004C2.56872 15.0704 0.0387187 14.0804 -1.90128 12.2404C-3.83128 10.4004 -4.93128 7.91043 -5.00128 5.24043C-5.06128 2.57043 -4.09128 0.0304317 -2.24128 -1.89957C-0.401281 -3.82957 2.08872 -4.92957 4.75872 -4.99957C7.42872 -5.05957 9.96872 -4.08957 11.8987 -2.23957C13.8287 -0.399569 14.9287 2.09043 14.9987 4.76043C14.9987 4.84043 14.9987 4.92043 14.9987 5.01043ZM-3.50128 4.99043C-3.50128 5.06043 -3.50128 5.13043 -3.50128 5.20043C-3.44128 7.48043 -2.51128 9.59043 -0.861281 11.1504C0.778718 12.7204 2.93872 13.5504 5.20872 13.4904C7.47872 13.4404 9.58872 12.5004 11.1587 10.8604C12.7287 9.22043 13.5587 7.08043 13.4987 4.79043C13.4487 2.52043 12.5087 0.410431 10.8687 -1.15957C9.22872 -2.72957 7.06872 -3.55957 4.79872 -3.49957C2.52872 -3.44957 0.418719 -2.50957 -1.15128 -0.869569C-2.67128 0.730432 -3.50128 2.80043 -3.50128 4.99043Z" fill="white"/>
</svg>
