<svg width="22" height="22" viewBox="0 0 22 22" fill="none" xmlns="http://www.w3.org/2000/svg">
<g clip-path="url(#clip0_243_763)">
<path d="M11.0007 1.83398C5.9379 1.83398 1.83398 5.9379 1.83398 11.0007C1.83398 15.5757 5.18623 19.368 9.56882 20.0564V13.6498H7.24048V11.0007H9.56882V8.98123C9.56882 6.68407 10.9365 5.4154 13.0311 5.4154C14.0339 5.4154 15.0826 5.59415 15.0826 5.59415V7.84915H13.9276C12.7882 7.84915 12.4334 8.5559 12.4334 9.28098V11.0007H14.9753L14.5692 13.6498H12.4334V20.0564C16.8151 19.3689 20.1673 15.5748 20.1673 11.0007C20.1673 5.9379 16.0634 1.83398 11.0007 1.83398Z" fill="white"/>
</g>
<defs>
<clipPath id="clip0_243_763">
<rect width="22" height="22" fill="white"/>
</clipPath>
</defs>
</svg>
