<svg width="16" height="16" viewBox="0 0 16 16" fill="none" xmlns="http://www.w3.org/2000/svg">
<path fill-rule="evenodd" clip-rule="evenodd" d="M4.00016 2C2.5274 2 1.3335 3.19391 1.3335 4.66667V11.3333C1.3335 12.8061 2.5274 14 4.00016 14H12.0002C13.4729 14 14.6668 12.8061 14.6668 11.3333V4.66667C14.6668 3.19391 13.4729 2 12.0002 2H4.00016ZM4.27751 4.91728C4.04775 4.7641 3.73732 4.82619 3.58414 5.05595C3.43096 5.28572 3.49305 5.59615 3.72281 5.74933L6.24361 7.42986C7.3073 8.13898 8.69303 8.13898 9.75671 7.42986L12.2775 5.74933C12.5073 5.59615 12.5694 5.28572 12.4162 5.05595C12.263 4.82619 11.9526 4.7641 11.7228 4.91728L9.20201 6.59781C8.47423 7.083 7.5261 7.083 6.79832 6.59781L4.27751 4.91728Z" fill="url(#paint0_linear_262_1178)"/>
<defs>
<linearGradient id="paint0_linear_262_1178" x1="1.54402" y1="-3.6" x2="17.7329" y2="-0.120613" gradientUnits="userSpaceOnUse">
<stop stop-color="#D89382"/>
<stop offset="1" stop-color="#B06C5B"/>
</linearGradient>
</defs>
</svg>
