<svg width="30" height="30" viewBox="0 0 30 30" fill="none" xmlns="http://www.w3.org/2000/svg">
<path fill-rule="evenodd" clip-rule="evenodd" d="M7.8125 10C7.8125 9.48223 8.23223 9.0625 8.75 9.0625H21.25C21.7678 9.0625 22.1875 9.48223 22.1875 10C22.1875 10.5178 21.7678 10.9375 21.25 10.9375H8.75C8.23223 10.9375 7.8125 10.5178 7.8125 10ZM7.8125 15C7.8125 14.4822 8.23223 14.0625 8.75 14.0625H21.25C21.7678 14.0625 22.1875 14.4822 22.1875 15C22.1875 15.5178 21.7678 15.9375 21.25 15.9375H8.75C8.23223 15.9375 7.8125 15.5178 7.8125 15ZM8.75 19.0625C8.23223 19.0625 7.8125 19.4822 7.8125 20C7.8125 20.5178 8.23223 20.9375 8.75 20.9375H21.25C21.7678 20.9375 22.1875 20.5178 22.1875 20C22.1875 19.4822 21.7678 19.0625 21.25 19.0625H8.75Z" fill="white"/>
</svg>
