<svg width="22" height="22" viewBox="0 0 22 22" fill="none" xmlns="http://www.w3.org/2000/svg">
<g clip-path="url(#clip0_243_760)">
<path d="M11.0007 1.83398C13.4912 1.83398 13.802 1.84315 14.7792 1.88898C15.7554 1.93482 16.42 2.0879 17.0048 2.31523C17.6098 2.54807 18.1195 2.8634 18.6292 3.37215C19.0953 3.83039 19.4559 4.38469 19.6861 4.99648C19.9125 5.5804 20.0665 6.2459 20.1123 7.22215C20.1554 8.19932 20.1673 8.51007 20.1673 11.0007C20.1673 13.4912 20.1582 13.802 20.1123 14.7792C20.0665 15.7554 19.9125 16.42 19.6861 17.0048C19.4566 17.6169 19.0958 18.1714 18.6292 18.6292C18.1708 19.0951 17.6165 19.4558 17.0048 19.6861C16.4209 19.9125 15.7554 20.0665 14.7792 20.1123C13.802 20.1554 13.4912 20.1673 11.0007 20.1673C8.51007 20.1673 8.19932 20.1582 7.22215 20.1123C6.2459 20.0665 5.58132 19.9125 4.99648 19.6861C4.38445 19.4564 3.83005 19.0957 3.37215 18.6292C2.90594 18.171 2.54525 17.6167 2.31523 17.0048C2.0879 16.4209 1.93482 15.7554 1.88898 14.7792C1.8459 13.802 1.83398 13.4912 1.83398 11.0007C1.83398 8.51007 1.84315 8.19932 1.88898 7.22215C1.93482 6.24498 2.0879 5.58132 2.31523 4.99648C2.54462 4.38432 2.90539 3.82986 3.37215 3.37215C3.83018 2.90578 4.38454 2.54507 4.99648 2.31523C5.58132 2.0879 6.24498 1.93482 7.22215 1.88898C8.19932 1.8459 8.51007 1.83398 11.0007 1.83398ZM11.0007 6.41732C9.78508 6.41732 8.61929 6.9002 7.75975 7.75975C6.9002 8.61929 6.41732 9.78508 6.41732 11.0007C6.41732 12.2162 6.9002 13.382 7.75975 14.2416C8.61929 15.1011 9.78508 15.584 11.0007 15.584C12.2162 15.584 13.382 15.1011 14.2416 14.2416C15.1011 13.382 15.584 12.2162 15.584 11.0007C15.584 9.78508 15.1011 8.61929 14.2416 7.75975C13.382 6.9002 12.2162 6.41732 11.0007 6.41732ZM16.959 6.18815C16.959 5.88426 16.8383 5.59281 16.6234 5.37792C16.4085 5.16304 16.117 5.04232 15.8132 5.04232C15.5093 5.04232 15.2178 5.16304 15.0029 5.37792C14.788 5.59281 14.6673 5.88426 14.6673 6.18815C14.6673 6.49204 14.788 6.78349 15.0029 6.99838C15.2178 7.21326 15.5093 7.33398 15.8132 7.33398C16.117 7.33398 16.4085 7.21326 16.6234 6.99838C16.8383 6.78349 16.959 6.49204 16.959 6.18815ZM11.0007 8.25065C11.73 8.25065 12.4295 8.54038 12.9452 9.05611C13.4609 9.57183 13.7507 10.2713 13.7507 11.0007C13.7507 11.73 13.4609 12.4295 12.9452 12.9452C12.4295 13.4609 11.73 13.7507 11.0007 13.7507C10.2713 13.7507 9.57183 13.4609 9.05611 12.9452C8.54038 12.4295 8.25065 11.73 8.25065 11.0007C8.25065 10.2713 8.54038 9.57183 9.05611 9.05611C9.57183 8.54038 10.2713 8.25065 11.0007 8.25065Z" fill="white"/>
</g>
<defs>
<clipPath id="clip0_243_760">
<rect width="22" height="22" fill="white"/>
</clipPath>
</defs>
</svg>
