<svg width="17" height="17" viewBox="0 0 17 17" fill="none" xmlns="http://www.w3.org/2000/svg">
<g clip-path="url(#clip0_252_1126)">
<path d="M14.875 11.6308V14.1355C14.8751 14.3148 14.8071 14.4875 14.6849 14.6187C14.5626 14.7499 14.3951 14.8299 14.2163 14.8424C13.9067 14.8637 13.6538 14.875 13.4583 14.875C7.19879 14.875 2.125 9.80121 2.125 3.54167C2.125 3.34617 2.13563 3.09329 2.15758 2.78375C2.17014 2.60486 2.25008 2.43738 2.38128 2.31512C2.51248 2.19286 2.68517 2.12492 2.8645 2.125H5.36917C5.45703 2.12491 5.54179 2.15748 5.60697 2.21639C5.67216 2.2753 5.71313 2.35633 5.72192 2.44375C5.73821 2.60667 5.75308 2.73629 5.76725 2.83475C5.90802 3.81715 6.1965 4.77263 6.62292 5.66879C6.69021 5.81046 6.64629 5.97975 6.51879 6.07042L4.99021 7.16267C5.92482 9.3404 7.66031 11.0759 9.83804 12.0105L10.9289 10.4847C10.9735 10.4224 11.0385 10.3777 11.1127 10.3584C11.1869 10.3391 11.2654 10.3465 11.3348 10.3792C12.2308 10.8048 13.186 11.0926 14.1681 11.2327C14.2665 11.2469 14.3962 11.2625 14.5577 11.2781C14.645 11.287 14.7258 11.3281 14.7846 11.3932C14.8433 11.4584 14.8758 11.5431 14.8757 11.6308H14.875Z" fill="white"/>
</g>
<defs>
<clipPath id="clip0_252_1126">
<rect width="17" height="17" fill="white"/>
</clipPath>
</defs>
</svg>
