<svg width="20" height="20" viewBox="0 0 20 20" fill="none" xmlns="http://www.w3.org/2000/svg">
<g clip-path="url(#clip0_293_7416)">
<path d="M16.147 10.3466L7.31449 16.235C7.25175 16.2767 7.17885 16.3007 7.10357 16.3043C7.02829 16.3079 6.95344 16.291 6.88699 16.2554C6.82055 16.2199 6.765 16.1669 6.72625 16.1023C6.68751 16.0376 6.66703 15.9637 6.66699 15.8883V4.11164C6.66703 4.03627 6.68751 3.96233 6.72625 3.89768C6.765 3.83303 6.82055 3.7801 6.88699 3.74452C6.95344 3.70895 7.02829 3.69207 7.10357 3.69567C7.17885 3.69927 7.25175 3.72322 7.31449 3.76498L16.147 9.65331C16.2041 9.69136 16.2508 9.74291 16.2832 9.80339C16.3156 9.86386 16.3325 9.93139 16.3325 9.99998C16.3325 10.0686 16.3156 10.1361 16.2832 10.1966C16.2508 10.257 16.2041 10.3086 16.147 10.3466Z" fill="white"/>
</g>
<defs>
<clipPath id="clip0_293_7416">
<rect width="20" height="20" fill="white"/>
</clipPath>
</defs>
</svg>
