<svg width="20" height="20" viewBox="0 0 20 20" fill="none" xmlns="http://www.w3.org/2000/svg">
<g clip-path="url(#clip0_250_757)">
<path d="M16.147 10.3467L7.31449 16.235C7.25175 16.2768 7.17885 16.3007 7.10357 16.3043C7.02829 16.3079 6.95344 16.291 6.88699 16.2555C6.82055 16.2199 6.765 16.167 6.72625 16.1023C6.68751 16.0377 6.66703 15.9637 6.66699 15.8883V4.11167C6.66703 4.0363 6.68751 3.96236 6.72625 3.89771C6.765 3.83306 6.82055 3.78013 6.88699 3.74456C6.95344 3.70898 7.02829 3.6921 7.10357 3.6957C7.17885 3.6993 7.25175 3.72325 7.31449 3.76501L16.147 9.65334C16.2041 9.69139 16.2508 9.74294 16.2832 9.80342C16.3156 9.86389 16.3325 9.93142 16.3325 10C16.3325 10.0686 16.3156 10.1361 16.2832 10.1966C16.2508 10.2571 16.2041 10.3086 16.147 10.3467Z" fill="#D89382"/>
</g>
<defs>
<clipPath id="clip0_250_757">
<rect width="20" height="20" fill="white"/>
</clipPath>
</defs>
</svg>
