<svg width="40" height="40" viewBox="0 0 40 40" fill="none" xmlns="http://www.w3.org/2000/svg">
<g clip-path="url(#clip0_250_682)">
<path d="M5 24.5834C5 16.3334 11.75 9.58337 20 9.58337C28.25 9.58337 35 16.3334 35 24.5834" stroke="#D89382" stroke-width="2" stroke-miterlimit="10" stroke-linecap="round" stroke-linejoin="round"/>
<path d="M6.25 23.3334H3.75V25.8334H6.25V23.3334Z" stroke="#D89382" stroke-width="2" stroke-miterlimit="10" stroke-linecap="round" stroke-linejoin="round"/>
<path d="M36.25 23.3334H33.75V25.8334H36.25V23.3334Z" stroke="#D89382" stroke-width="2" stroke-miterlimit="10" stroke-linecap="round" stroke-linejoin="round"/>
<path d="M21.25 5H18.75V7.5H21.25V5Z" stroke="#D89382" stroke-width="2" stroke-miterlimit="10" stroke-linecap="round" stroke-linejoin="round"/>
<path d="M5 7.5C5.69036 7.5 6.25 6.94036 6.25 6.25C6.25 5.55964 5.69036 5 5 5C4.30964 5 3.75 5.55964 3.75 6.25C3.75 6.94036 4.30964 7.5 5 7.5Z" stroke="#D89382" stroke-width="2" stroke-miterlimit="10" stroke-linecap="round" stroke-linejoin="round"/>
<path d="M35 7.5C35.6904 7.5 36.25 6.94036 36.25 6.25C36.25 5.55964 35.6904 5 35 5C34.3096 5 33.75 5.55964 33.75 6.25C33.75 6.94036 34.3096 7.5 35 7.5Z" stroke="#D89382" stroke-width="2" stroke-miterlimit="10" stroke-linecap="round" stroke-linejoin="round"/>
<path d="M5 6.25H35" stroke="#D89382" stroke-width="2" stroke-miterlimit="10" stroke-linecap="round" stroke-linejoin="round"/>
<path d="M20 15.8334L12.5 27.3334C14.5 29.5834 16 32.4584 16.75 35.8334H20H23.25C24 32.4584 25.5 29.4584 27.5 27.3334L20 15.8334Z" stroke="#D89382" stroke-width="2" stroke-miterlimit="10" stroke-linecap="round" stroke-linejoin="round"/>
<path d="M20 24.5834V16.2084" stroke="#D89382" stroke-width="2" stroke-miterlimit="10" stroke-linecap="round" stroke-linejoin="round"/>
<path d="M20 29.5834C21.3807 29.5834 22.5 28.4641 22.5 27.0834C22.5 25.7027 21.3807 24.5834 20 24.5834C18.6193 24.5834 17.5 25.7027 17.5 27.0834C17.5 28.4641 18.6193 29.5834 20 29.5834Z" stroke="#D89382" stroke-width="2" stroke-miterlimit="10" stroke-linecap="round" stroke-linejoin="round"/>
<path d="M23.75 35.8334H16.25V39.5834H23.75V35.8334Z" stroke="#D89382" stroke-width="2" stroke-miterlimit="10" stroke-linecap="round" stroke-linejoin="round"/>
</g>
<defs>
<clipPath id="clip0_250_682">
<rect width="40" height="40" fill="white"/>
</clipPath>
</defs>
</svg>
