<svg width="40" height="40" viewBox="0 0 40 40" fill="none" xmlns="http://www.w3.org/2000/svg">
<path d="M27.5 36.25C32.3325 36.25 36.25 32.3325 36.25 27.5C36.25 22.6675 32.3325 18.75 27.5 18.75C22.6675 18.75 18.75 22.6675 18.75 27.5C18.75 32.3325 22.6675 36.25 27.5 36.25Z" stroke="#D89382" stroke-width="2" stroke-miterlimit="10" stroke-linecap="round" stroke-linejoin="round"/>
<path d="M27.5 21.25V27.5L31.25 25" stroke="#D89382" stroke-width="2" stroke-miterlimit="10" stroke-linejoin="round"/>
<path d="M6.25 15H26.25" stroke="#D89382" stroke-width="2" stroke-miterlimit="10" stroke-linecap="round" stroke-linejoin="round"/>
<path d="M13.125 10.125L11.625 4.875C14.5 3.375 18 3.375 20.875 4.875L19.375 10.125" stroke="#D89382" stroke-width="2" stroke-miterlimit="10" stroke-linecap="round" stroke-linejoin="round"/>
<path d="M20.625 6.125C23.125 7.625 24.75 10.375 24.75 13.5V15" stroke="#D89382" stroke-width="2" stroke-miterlimit="10" stroke-linecap="round" stroke-linejoin="round"/>
<path d="M7.75 15V13.5C7.75 10.375 9.375 7.625 11.875 6.125" stroke="#D89382" stroke-width="2" stroke-miterlimit="10" stroke-linecap="round" stroke-linejoin="round"/>
<path d="M10 15V17.5C10 20.125 11.125 22.5 13.125 23.75C13.125 26.375 11.5 28.625 9.125 29.25C6.375 30 4.375 32.5 3.75 35.5C3.75 35.875 4 36.25 4.375 36.25H16.25" stroke="#D89382" stroke-width="2" stroke-miterlimit="10" stroke-linecap="round" stroke-linejoin="round"/>
</svg>
