<svg width="40" height="40" viewBox="0 0 40 40" fill="none" xmlns="http://www.w3.org/2000/svg">
<path d="M30.0966 4.09405C27.6186 3.87386 25.2483 4.67425 23.4246 6.34435C21.6257 7.99148 20.5941 10.3344 20.5941 12.7721V21.0889H7.9208V14.3562H12.2214C12.3972 14.3562 12.5644 14.2782 12.6772 14.1432C12.7901 14.0081 12.8372 13.8295 12.8059 13.6564L11.2305 4.94355C11.1794 4.66078 10.9335 4.45524 10.6459 4.45524H3.9513C3.66377 4.45524 3.41783 4.66078 3.36674 4.94355L1.79169 13.6564C1.76041 13.8295 1.80753 14.0077 1.9204 14.1432C2.03328 14.2782 2.2004 14.3562 2.37625 14.3562H6.73268V21.0889H2.57427C2.24595 21.0889 1.98021 21.355 1.98021 21.683V35.9404C1.98021 36.2683 2.24595 36.5345 2.57427 36.5345H7.32674C7.65506 36.5345 7.9208 36.2683 7.9208 35.9404V29.0097H20.5941V35.9404C20.5941 36.2683 20.8602 36.5345 21.1881 36.5345H25.9406C26.2685 36.5345 26.5347 36.2683 26.5347 35.9404V29.0097H32.0792V35.9404C32.0792 36.2683 32.3454 36.5345 32.6733 36.5345H37.4258C37.7537 36.5345 38.0198 36.2683 38.0198 35.9404V12.9554C38.0198 8.37841 34.5394 4.48613 30.0966 4.09405ZM3.08714 13.1681L4.44753 5.64336H10.1497L11.5105 13.1681H3.08714ZM25.3465 35.3463H21.7822V28.4156C21.7822 28.0877 21.516 27.8216 21.1881 27.8216H7.32674C6.99842 27.8216 6.73268 28.0877 6.73268 28.4156V35.3463H3.16833V22.277H25.3465V35.3463ZM36.8317 35.3463H33.2673V28.4156C33.2673 28.0877 33.0012 27.8216 32.6733 27.8216H26.5347V21.683C26.5347 21.355 26.2685 21.0889 25.9406 21.0889H21.7822V12.7721C21.7822 10.6667 22.6733 8.64336 24.2269 7.22078C25.8024 5.77841 27.8499 5.0889 29.9925 5.27781C33.8273 5.61603 36.8317 8.98831 36.8317 12.9554V35.3463Z" fill="#D89382" stroke="#D89382" stroke-width="1.33"/>
</svg>
