<svg width="40" height="40" viewBox="0 0 40 40" fill="none" xmlns="http://www.w3.org/2000/svg">
<path fill-rule="evenodd" clip-rule="evenodd" d="M11.2637 7.33609C10.5436 6.92035 9.62286 7.16708 9.20713 7.88716L5.83075 13.7352C5.41501 14.4553 5.66172 15.3761 6.38182 15.7918L23.6919 25.7858C24.3293 26.1538 25.1393 26.007 25.6071 25.4388L31.0877 18.7814L11.2637 7.33609ZM33.7312 20.3078L34.4706 20.7346C35.1907 21.1504 36.1115 20.9037 36.5272 20.1836C36.943 19.4635 36.6962 18.5427 35.9761 18.127L12.7693 4.72842C10.609 3.48119 7.84669 4.22136 6.59946 6.38162L3.22309 12.2297C1.97586 14.3899 2.71602 17.1523 4.87628 18.3995L11.889 22.4483L9.23395 27.3159C8.97014 27.7995 8.46319 28.1004 7.91224 28.1004H3.67758V26.5949C3.67758 25.7634 3.00352 25.0893 2.17204 25.0893C1.34056 25.0893 0.666504 25.7634 0.666504 26.5949V32.617C0.666504 33.4485 1.34056 34.1226 2.17204 34.1226C3.00352 34.1226 3.67758 33.4485 3.67758 32.617V31.1115H7.91224C9.56508 31.1115 11.0859 30.2088 11.8774 28.7577L14.4974 23.9543L22.1863 28.3934C24.0985 29.4974 26.5285 29.0572 27.9316 27.3526L33.7312 20.3078ZM10.443 12.4994C10.8587 11.7793 11.7795 11.5326 12.4996 11.9483L14.3435 13.0129C15.0636 13.4286 15.3103 14.3494 14.8945 15.0695C14.4788 15.7896 13.558 16.0363 12.8379 15.6205L10.994 14.556C10.2739 14.1402 10.0272 13.2195 10.443 12.4994Z" fill="#D89382"/>
</svg>
