<svg width="123" height="33" viewBox="0 0 123 33" fill="none" xmlns="http://www.w3.org/2000/svg">
<path d="M37.9125 17.0633H45.8502V18.3553H37.9125V17.0633ZM41.1132 18.1923H42.6612V24.5938H41.1132V18.1923ZM51.1067 22.6733H52.5732C52.5111 23.069 52.3443 23.4221 52.0727 23.7325C51.8089 24.0428 51.4481 24.2873 50.9903 24.4657C50.5325 24.6442 49.9738 24.7334 49.3143 24.7334C48.5771 24.7334 47.9254 24.617 47.3589 24.3842C46.7925 24.1437 46.3502 23.7984 46.0321 23.3484C45.714 22.8983 45.5549 22.3552 45.5549 21.7189C45.5549 21.0827 45.7101 20.5395 46.0205 20.0895C46.3308 19.6317 46.7615 19.2825 47.3124 19.042C47.871 18.8014 48.5228 18.6812 49.2677 18.6812C50.0281 18.6812 50.6605 18.8014 51.1649 19.042C51.6692 19.2825 52.0417 19.6472 52.2822 20.136C52.5305 20.6171 52.6353 21.234 52.5965 21.9866H47.0796C47.1184 22.2815 47.227 22.5492 47.4055 22.7897C47.5917 23.0303 47.84 23.2204 48.1504 23.36C48.4685 23.4997 48.8448 23.5695 49.2794 23.5695C49.7604 23.5695 50.16 23.488 50.4782 23.3251C50.8041 23.1544 51.0136 22.9371 51.1067 22.6733ZM49.1979 19.8334C48.6392 19.8334 48.1853 19.9576 47.8361 20.2059C47.487 20.4464 47.2619 20.7451 47.1611 21.1021H51.095C51.0562 20.7141 50.87 20.4076 50.5364 20.1826C50.2105 19.9498 49.7643 19.8334 49.1979 19.8334ZM60.5893 22.3125C60.5505 22.8169 60.3876 23.2514 60.1005 23.6161C59.8212 23.9808 59.4332 24.2601 58.9366 24.4541C58.44 24.6403 57.8503 24.7334 57.1675 24.7334C56.4536 24.7334 55.8135 24.6209 55.247 24.3959C54.6884 24.1631 54.2461 23.8256 53.9202 23.3833C53.6021 22.9333 53.443 22.3785 53.443 21.7189C53.443 21.0594 53.6021 20.5046 53.9202 20.0546C54.2461 19.6045 54.6884 19.2631 55.247 19.0303C55.8135 18.7976 56.4536 18.6812 57.1675 18.6812C57.8503 18.6812 58.4361 18.7782 58.925 18.9721C59.4138 19.1584 59.7979 19.4299 60.0772 19.7869C60.3643 20.1438 60.5311 20.5744 60.5777 21.0788H59.1927C59.0607 20.6908 58.8163 20.3882 58.4594 20.1709C58.1025 19.9537 57.6718 19.8451 57.1675 19.8451C56.764 19.8451 56.3954 19.9149 56.0618 20.0546C55.7359 20.1942 55.4721 20.4037 55.2703 20.6831C55.0763 20.9546 54.9794 21.2999 54.9794 21.7189C54.9794 22.1302 55.0763 22.4755 55.2703 22.7548C55.4643 23.0264 55.7281 23.232 56.0618 23.3717C56.3954 23.5036 56.764 23.5695 57.1675 23.5695C57.7106 23.5695 58.1529 23.4609 58.4943 23.2436C58.8435 23.0264 59.0801 22.716 59.2043 22.3125H60.5893ZM66.9855 24.5938V21.4163C66.9855 21.0982 66.9312 20.8344 66.8225 20.6249C66.7139 20.4154 66.5393 20.2563 66.2988 20.1477C66.066 20.039 65.7518 19.9847 65.356 19.9847C64.9758 19.9847 64.6305 20.0584 64.3202 20.2059C64.0098 20.3455 63.7576 20.5318 63.5636 20.7645C63.3696 20.9896 63.261 21.2301 63.2377 21.4861L63.2261 20.846C63.2649 20.59 63.3541 20.3339 63.4938 20.0778C63.6335 19.8218 63.8197 19.589 64.0525 19.3795C64.2852 19.17 64.5646 19.0032 64.8905 18.879C65.2241 18.7471 65.5966 18.6812 66.0078 18.6812C66.3647 18.6812 66.6945 18.7277 66.9971 18.8208C67.2997 18.9062 67.5635 19.042 67.7886 19.2282C68.0136 19.4144 68.1882 19.6472 68.3123 19.9265C68.4365 20.1981 68.4985 20.5201 68.4985 20.8926V24.5938H66.9855ZM61.8061 24.5938V16.4814H63.3192V24.5938H61.8061ZM69.8737 18.8092H71.3867V24.5938H69.8737V18.8092ZM74.0753 18.6812C74.4323 18.6812 74.762 18.7277 75.0646 18.8208C75.3673 18.9139 75.6311 19.0575 75.8561 19.2515C76.0811 19.4455 76.2557 19.6938 76.3798 19.9964C76.504 20.2912 76.5661 20.6443 76.5661 21.0555V24.5938H75.053V21.3232C75.053 20.8344 74.9327 20.4774 74.6922 20.2524C74.4594 20.0196 74.0753 19.9033 73.5399 19.9033C73.1365 19.9033 72.7718 19.9808 72.4459 20.136C72.12 20.2912 71.8562 20.4891 71.6544 20.7296C71.4527 20.9624 71.3363 21.2068 71.3053 21.4629L71.2936 20.8693C71.3324 20.5977 71.4216 20.3339 71.5613 20.0778C71.701 19.8218 71.8872 19.589 72.12 19.3795C72.3605 19.1622 72.6437 18.9915 72.9696 18.8674C73.2955 18.7432 73.6641 18.6812 74.0753 18.6812ZM81.3539 24.7334C80.6245 24.7334 79.9805 24.617 79.4218 24.3842C78.8709 24.1515 78.4402 23.8139 78.1299 23.3717C77.8195 22.9216 77.6643 22.3707 77.6643 21.7189C77.6643 21.0671 77.8195 20.5162 78.1299 20.0662C78.4402 19.6084 78.8709 19.2631 79.4218 19.0303C79.9805 18.7976 80.6245 18.6812 81.3539 18.6812C82.0832 18.6812 82.7195 18.7976 83.2626 19.0303C83.8136 19.2631 84.2442 19.6084 84.5546 20.0662C84.8649 20.5162 85.0201 21.0671 85.0201 21.7189C85.0201 22.3707 84.8649 22.9216 84.5546 23.3717C84.2442 23.8139 83.8136 24.1515 83.2626 24.3842C82.7195 24.617 82.0832 24.7334 81.3539 24.7334ZM81.3539 23.5695C81.7573 23.5695 82.1181 23.4997 82.4363 23.36C82.7622 23.2126 83.0182 23.0031 83.2044 22.7315C83.3907 22.4522 83.4838 22.1147 83.4838 21.7189C83.4838 21.3232 83.3907 20.9857 83.2044 20.7063C83.0182 20.4192 82.766 20.202 82.4479 20.0546C82.1298 19.9071 81.7651 19.8334 81.3539 19.8334C80.9504 19.8334 80.5857 19.9071 80.2598 20.0546C79.9339 20.202 79.674 20.4154 79.48 20.6947C79.2938 20.974 79.2006 21.3154 79.2006 21.7189C79.2006 22.1147 79.2938 22.4522 79.48 22.7315C79.6662 23.0031 79.9223 23.2126 80.2482 23.36C80.574 23.4997 80.9426 23.5695 81.3539 23.5695ZM86.255 16.4814H87.7681V24.5938H86.255V16.4814ZM92.7087 24.7334C91.9793 24.7334 91.3353 24.617 90.7766 24.3842C90.2257 24.1515 89.795 23.8139 89.4847 23.3717C89.1743 22.9216 89.0191 22.3707 89.0191 21.7189C89.0191 21.0671 89.1743 20.5162 89.4847 20.0662C89.795 19.6084 90.2257 19.2631 90.7766 19.0303C91.3353 18.7976 91.9793 18.6812 92.7087 18.6812C93.438 18.6812 94.0743 18.7976 94.6174 19.0303C95.1684 19.2631 95.599 19.6084 95.9094 20.0662C96.2197 20.5162 96.3749 21.0671 96.3749 21.7189C96.3749 22.3707 96.2197 22.9216 95.9094 23.3717C95.599 23.8139 95.1684 24.1515 94.6174 24.3842C94.0743 24.617 93.438 24.7334 92.7087 24.7334ZM92.7087 23.5695C93.1121 23.5695 93.4729 23.4997 93.7911 23.36C94.117 23.2126 94.373 23.0031 94.5592 22.7315C94.7455 22.4522 94.8386 22.1147 94.8386 21.7189C94.8386 21.3232 94.7455 20.9857 94.5592 20.7063C94.373 20.4192 94.1208 20.202 93.8027 20.0546C93.4846 19.9071 93.1199 19.8334 92.7087 19.8334C92.3052 19.8334 91.9405 19.9071 91.6146 20.0546C91.2887 20.202 91.0288 20.4154 90.8348 20.6947C90.6486 20.974 90.5554 21.3154 90.5554 21.7189C90.5554 22.1147 90.6486 22.4522 90.8348 22.7315C91.021 23.0031 91.2771 23.2126 91.603 23.36C91.9288 23.4997 92.2974 23.5695 92.7087 23.5695ZM100.38 23.7092C99.7514 23.7092 99.1966 23.6161 98.7155 23.4299C98.2422 23.2359 97.8737 22.9527 97.6098 22.5802C97.346 22.2078 97.2141 21.7577 97.2141 21.2301C97.2141 20.7102 97.3421 20.2602 97.5982 19.88C97.8543 19.4998 98.2189 19.2049 98.6923 18.9954C99.1733 18.7859 99.7359 18.6812 100.38 18.6812C100.558 18.6812 100.729 18.6928 100.892 18.7161C101.063 18.7394 101.23 18.7704 101.392 18.8092L104.314 18.8208V19.9614C103.918 19.9692 103.515 19.9227 103.103 19.8218C102.7 19.7131 102.343 19.5968 102.033 19.4726L101.998 19.3911C102.262 19.5153 102.51 19.6705 102.743 19.8567C102.975 20.0352 103.162 20.2447 103.301 20.4852C103.449 20.718 103.522 20.9896 103.522 21.2999C103.522 21.8043 103.394 22.2388 103.138 22.6035C102.882 22.9604 102.518 23.2359 102.044 23.4299C101.579 23.6161 101.024 23.7092 100.38 23.7092ZM102.324 26.9797V26.7004C102.324 26.3435 102.207 26.0952 101.974 25.9555C101.749 25.8158 101.439 25.746 101.043 25.746H99.2393C98.8901 25.746 98.5953 25.7188 98.3547 25.6645C98.1219 25.6102 97.9357 25.5326 97.7961 25.4318C97.6564 25.3309 97.5555 25.2106 97.4934 25.0709C97.4314 24.939 97.4003 24.7955 97.4003 24.6403C97.4003 24.3299 97.5012 24.0972 97.7029 23.942C97.9047 23.779 98.1763 23.6704 98.5177 23.6161C98.8591 23.5618 99.2354 23.5501 99.6467 23.5812L100.38 23.7092C99.8911 23.7247 99.5264 23.7674 99.2858 23.8372C99.0531 23.8993 98.9367 24.0273 98.9367 24.2213C98.9367 24.3377 98.9832 24.4308 99.0763 24.5006C99.1695 24.5627 99.3014 24.5938 99.4721 24.5938H101.369C101.889 24.5938 102.331 24.6481 102.696 24.7567C103.069 24.8731 103.352 25.0632 103.546 25.327C103.74 25.5986 103.837 25.9671 103.837 26.4327V26.9797H102.324ZM100.38 22.6151C100.714 22.6151 101.005 22.5608 101.253 22.4522C101.509 22.3436 101.707 22.1884 101.846 21.9866C101.986 21.7771 102.056 21.5288 102.056 21.2417C102.056 20.9469 101.986 20.6947 101.846 20.4852C101.707 20.2757 101.513 20.1166 101.264 20.008C101.016 19.8916 100.721 19.8334 100.38 19.8334C100.046 19.8334 99.7514 19.8916 99.4953 20.008C99.2393 20.1166 99.0414 20.2757 98.9018 20.4852C98.7621 20.6947 98.6923 20.9469 98.6923 21.2417C98.6923 21.5288 98.7621 21.7771 98.9018 21.9866C99.0414 22.1884 99.2354 22.3436 99.4837 22.4522C99.7398 22.5608 100.038 22.6151 100.38 22.6151ZM107.036 16.2719V17.5987H105.279V16.2719H107.036ZM105.395 18.8092H106.908V24.5938H105.395V18.8092ZM113.689 22.6733H115.155C115.093 23.069 114.926 23.4221 114.655 23.7325C114.391 24.0428 114.03 24.2873 113.572 24.4657C113.115 24.6442 112.556 24.7334 111.896 24.7334C111.159 24.7334 110.507 24.617 109.941 24.3842C109.375 24.1437 108.932 23.7984 108.614 23.3484C108.296 22.8983 108.137 22.3552 108.137 21.7189C108.137 21.0827 108.292 20.5395 108.603 20.0895C108.913 19.6317 109.344 19.2825 109.894 19.042C110.453 18.8014 111.105 18.6812 111.85 18.6812C112.61 18.6812 113.243 18.8014 113.747 19.042C114.251 19.2825 114.624 19.6472 114.864 20.136C115.113 20.6171 115.217 21.234 115.179 21.9866H109.662C109.7 22.2815 109.809 22.5492 109.988 22.7897C110.174 23.0303 110.422 23.2204 110.732 23.36C111.051 23.4997 111.427 23.5695 111.861 23.5695C112.343 23.5695 112.742 23.488 113.06 23.3251C113.386 23.1544 113.596 22.9371 113.689 22.6733ZM111.78 19.8334C111.221 19.8334 110.767 19.9576 110.418 20.2059C110.069 20.4464 109.844 20.7451 109.743 21.1021H113.677C113.638 20.7141 113.452 20.4076 113.118 20.1826C112.793 19.9498 112.346 19.8334 111.78 19.8334ZM116.072 22.6733H117.468C117.554 22.9371 117.728 23.1544 117.992 23.3251C118.264 23.488 118.617 23.5695 119.051 23.5695C119.346 23.5695 119.575 23.5424 119.738 23.488C119.901 23.4337 120.013 23.3561 120.075 23.2553C120.138 23.1466 120.169 23.0264 120.169 22.8945C120.169 22.7315 120.118 22.6074 120.017 22.522C119.916 22.4289 119.761 22.3552 119.552 22.3009C119.342 22.2466 119.075 22.1961 118.749 22.1496C118.423 22.0953 118.108 22.0293 117.806 21.9517C117.503 21.8741 117.236 21.7732 117.003 21.6491C116.77 21.5172 116.584 21.3542 116.444 21.1603C116.312 20.9585 116.246 20.7141 116.246 20.427C116.246 20.1477 116.312 19.8994 116.444 19.6821C116.584 19.4649 116.774 19.2825 117.014 19.1351C117.263 18.9877 117.55 18.8751 117.876 18.7976C118.209 18.72 118.566 18.6812 118.946 18.6812C119.521 18.6812 119.998 18.7665 120.378 18.9372C120.758 19.1002 121.042 19.3329 121.228 19.6356C121.422 19.9304 121.519 20.2718 121.519 20.6598H120.18C120.118 20.3727 119.994 20.1671 119.808 20.0429C119.622 19.911 119.334 19.8451 118.946 19.8451C118.566 19.8451 118.279 19.9033 118.085 20.0196C117.891 20.136 117.794 20.2951 117.794 20.4968C117.794 20.6598 117.852 20.7878 117.969 20.8809C118.093 20.9663 118.271 21.0361 118.504 21.0904C118.745 21.1447 119.043 21.2029 119.4 21.265C119.703 21.3271 119.99 21.3969 120.262 21.4745C120.541 21.5521 120.789 21.653 121.007 21.7771C121.224 21.8935 121.395 22.0526 121.519 22.2543C121.651 22.4483 121.717 22.6966 121.717 22.9992C121.717 23.3717 121.608 23.6859 121.391 23.942C121.181 24.198 120.879 24.3959 120.483 24.5356C120.087 24.6675 119.614 24.7334 119.063 24.7334C118.574 24.7334 118.151 24.683 117.794 24.5821C117.445 24.4735 117.154 24.3377 116.921 24.1747C116.689 24.004 116.506 23.8256 116.374 23.6394C116.25 23.4454 116.165 23.263 116.118 23.0923C116.072 22.9216 116.056 22.782 116.072 22.6733Z" fill="white"/>
<path d="M40.3653 11.9319C40.0948 11.9319 39.8468 11.8575 39.6213 11.7087C39.4004 11.5554 39.2246 11.348 39.0938 11.0865C38.9631 10.8205 38.8977 10.5184 38.8977 10.1802C38.8977 9.84209 38.9608 9.54 39.0871 9.27398C39.2133 9.00797 39.3869 8.79831 39.6078 8.64502C39.8288 8.49172 40.0812 8.41507 40.3653 8.41507C40.6178 8.41507 40.8229 8.46241 40.9807 8.55709C41.1431 8.64727 41.267 8.77351 41.3527 8.93583C41.4384 9.09814 41.497 9.28526 41.5285 9.49717C41.5646 9.70908 41.5827 9.93677 41.5827 10.1802C41.5827 10.3516 41.5646 10.5387 41.5285 10.7416C41.4925 10.94 41.4294 11.1316 41.3392 11.3164C41.2535 11.4968 41.1318 11.6456 40.974 11.7628C40.8162 11.8755 40.6133 11.9319 40.3653 11.9319ZM40.5006 11.4179C40.7305 11.4179 40.9199 11.3615 41.0687 11.2488C41.222 11.1361 41.3347 10.9873 41.4068 10.8024C41.479 10.6131 41.515 10.4057 41.515 10.1802C41.515 9.93226 41.4767 9.71584 41.4 9.53098C41.3279 9.34162 41.2152 9.19508 41.0619 9.09138C40.9131 8.98317 40.726 8.92907 40.5006 8.92907C40.1624 8.92907 39.9009 9.04855 39.716 9.28751C39.5312 9.52197 39.4387 9.81954 39.4387 10.1802C39.4387 10.4192 39.4838 10.6334 39.574 10.8227C39.6687 11.0076 39.7949 11.1541 39.9527 11.2623C40.1151 11.366 40.2977 11.4179 40.5006 11.4179ZM41.515 7.13008H42.0561V11.8643H41.5624C41.5533 11.7651 41.5421 11.6478 41.5285 11.5126C41.5195 11.3773 41.515 11.2691 41.515 11.1879V7.13008ZM49.2181 10.7754H49.7253C49.6893 10.9963 49.6081 11.1947 49.4819 11.3706C49.3601 11.5419 49.1978 11.6794 48.9949 11.7831C48.7965 11.8823 48.5666 11.9319 48.3051 11.9319C47.9895 11.9319 47.7054 11.8575 47.4529 11.7087C47.2004 11.5554 46.9998 11.348 46.851 11.0865C46.7067 10.8205 46.6346 10.5184 46.6346 10.1802C46.6346 9.84209 46.7045 9.54 46.8443 9.27398C46.9885 9.00797 47.1847 8.79831 47.4326 8.64502C47.6806 8.49172 47.9602 8.41507 48.2713 8.41507C48.6004 8.41507 48.8777 8.48946 49.1031 8.63825C49.3331 8.78253 49.5022 8.9967 49.6104 9.28075C49.7231 9.56029 49.7682 9.90521 49.7456 10.3155H47.1756C47.1982 10.5364 47.2591 10.7303 47.3582 10.8971C47.4574 11.064 47.5882 11.1947 47.7505 11.2894C47.9128 11.3796 48.0977 11.4247 48.3051 11.4247C48.535 11.4247 48.7289 11.366 48.8867 11.2488C49.049 11.1271 49.1595 10.9693 49.2181 10.7754ZM48.2916 8.9223C48.012 8.9223 47.7776 9.00346 47.5882 9.16578C47.3988 9.32809 47.2726 9.54902 47.2095 9.82856H49.1911C49.173 9.53098 49.0761 9.30555 48.9002 9.15225C48.7289 8.99895 48.526 8.9223 48.2916 8.9223ZM55.4368 11.3976H55.2745L56.3093 8.4827H56.8977L55.6127 11.8643H55.1054L53.8272 8.4827H54.4156L55.4368 11.3976ZM63.5559 10.7754H64.0631C64.0271 10.9963 63.9459 11.1947 63.8197 11.3706C63.6979 11.5419 63.5356 11.6794 63.3327 11.7831C63.1343 11.8823 62.9044 11.9319 62.6429 11.9319C62.3273 11.9319 62.0432 11.8575 61.7907 11.7087C61.5382 11.5554 61.3376 11.348 61.1888 11.0865C61.0445 10.8205 60.9724 10.5184 60.9724 10.1802C60.9724 9.84209 61.0423 9.54 61.1821 9.27398C61.3263 9.00797 61.5225 8.79831 61.7704 8.64502C62.0184 8.49172 62.298 8.41507 62.6091 8.41507C62.9382 8.41507 63.2155 8.48946 63.4409 8.63825C63.6709 8.78253 63.84 8.9967 63.9482 9.28075C64.0609 9.56029 64.106 9.90521 64.0834 10.3155H61.5134C61.536 10.5364 61.5969 10.7303 61.696 10.8971C61.7952 11.064 61.926 11.1947 62.0883 11.2894C62.2506 11.3796 62.4355 11.4247 62.6429 11.4247C62.8728 11.4247 63.0667 11.366 63.2245 11.2488C63.3868 11.1271 63.4973 10.9693 63.5559 10.7754ZM62.6294 8.9223C62.3498 8.9223 62.1154 9.00346 61.926 9.16578C61.7366 9.32809 61.6104 9.54902 61.5473 9.82856H63.5289C63.5108 9.53098 63.4139 9.30555 63.238 9.15225C63.0667 8.99895 62.8638 8.9223 62.6294 8.9223ZM68.6361 7.13008H69.1771V11.8643H68.6361V7.13008ZM75.3821 11.9319C75.0935 11.9319 74.823 11.862 74.5705 11.7222C74.318 11.5825 74.1128 11.3818 73.955 11.1203C73.8017 10.8543 73.7251 10.5409 73.7251 10.1802C73.7251 9.81954 73.8017 9.50844 73.955 9.24693C74.1128 8.98092 74.318 8.77577 74.5705 8.63149C74.823 8.48721 75.0935 8.41507 75.3821 8.41507C75.6706 8.41507 75.9389 8.48721 76.1869 8.63149C76.4394 8.77577 76.6422 8.98092 76.7955 9.24693C76.9488 9.50844 77.0255 9.81954 77.0255 10.1802C77.0255 10.5409 76.9488 10.8543 76.7955 11.1203C76.6422 11.3818 76.4394 11.5825 76.1869 11.7222C75.9389 11.862 75.6706 11.9319 75.3821 11.9319ZM75.3821 11.4247C75.5714 11.4247 75.7495 11.3773 75.9163 11.2826C76.0832 11.1879 76.2184 11.0482 76.3221 10.8633C76.4303 10.6739 76.4844 10.4463 76.4844 10.1802C76.4844 9.91423 76.4303 9.68879 76.3221 9.50393C76.2184 9.31456 76.0832 9.17028 75.9163 9.07109C75.7495 8.9719 75.5714 8.9223 75.3821 8.9223C75.1927 8.9223 75.0123 8.9719 74.841 9.07109C74.6742 9.16578 74.5367 9.3078 74.4285 9.49717C74.3202 9.68203 74.2661 9.90972 74.2661 10.1802C74.2661 10.4463 74.318 10.6739 74.4217 10.8633C74.5299 11.0482 74.6697 11.1879 74.841 11.2826C75.0123 11.3773 75.1927 11.4247 75.3821 11.4247ZM83.1902 11.9319C82.9422 11.9319 82.7394 11.8755 82.5815 11.7628C82.4237 11.6456 82.2998 11.4968 82.2096 11.3164C82.1239 11.1316 82.063 10.94 82.027 10.7416C81.9909 10.5387 81.9729 10.3516 81.9729 10.1802C81.9729 9.93677 81.9886 9.70908 82.0202 9.49717C82.0563 9.28526 82.1171 9.09814 82.2028 8.93583C82.2885 8.77351 82.4102 8.64727 82.568 8.55709C82.7303 8.46241 82.9377 8.41507 83.1902 8.41507C83.4608 8.41507 83.7065 8.49172 83.9274 8.64502C84.1483 8.79831 84.3242 9.00797 84.4549 9.27398C84.5902 9.54 84.6578 9.84209 84.6578 10.1802C84.6578 10.5184 84.5902 10.8205 84.4549 11.0865C84.3197 11.348 84.1393 11.5554 83.9139 11.7087C83.693 11.8575 83.4517 11.9319 83.1902 11.9319ZM83.055 11.4179C83.2624 11.4179 83.445 11.366 83.6028 11.2623C83.7651 11.1541 83.8913 11.0076 83.9815 10.8227C84.0717 10.6334 84.1168 10.4192 84.1168 10.1802C84.1168 9.81954 84.0243 9.52197 83.8395 9.28751C83.6546 9.04855 83.3931 8.92907 83.055 8.92907C82.8566 8.92907 82.6807 8.98317 82.5274 9.09138C82.3741 9.19508 82.2547 9.34162 82.169 9.53098C82.0833 9.71584 82.0405 9.93226 82.0405 10.1802C82.0405 10.4057 82.0766 10.6131 82.1487 10.8024C82.2254 10.9873 82.3381 11.1361 82.4869 11.2488C82.6357 11.3615 82.825 11.4179 83.055 11.4179ZM81.4995 8.4827H82.0202L82.0405 9.19283V13.2169H81.4995V8.4827ZM91.5314 10.7754H92.0387C92.0026 10.9963 91.9214 11.1947 91.7952 11.3706C91.6734 11.5419 91.5111 11.6794 91.3082 11.7831C91.1099 11.8823 90.8799 11.9319 90.6184 11.9319C90.3028 11.9319 90.0187 11.8575 89.7662 11.7087C89.5138 11.5554 89.3131 11.348 89.1643 11.0865C89.0201 10.8205 88.9479 10.5184 88.9479 10.1802C88.9479 9.84209 89.0178 9.54 89.1576 9.27398C89.3018 9.00797 89.498 8.79831 89.746 8.64502C89.9939 8.49172 90.2735 8.41507 90.5846 8.41507C90.9137 8.41507 91.191 8.48946 91.4164 8.63825C91.6464 8.78253 91.8155 8.9967 91.9237 9.28075C92.0364 9.56029 92.0815 9.90521 92.0589 10.3155H89.489C89.5115 10.5364 89.5724 10.7303 89.6716 10.8971C89.7708 11.064 89.9015 11.1947 90.0638 11.2894C90.2261 11.3796 90.411 11.4247 90.6184 11.4247C90.8483 11.4247 91.0422 11.366 91.2 11.2488C91.3623 11.1271 91.4728 10.9693 91.5314 10.7754ZM90.6049 8.9223C90.3253 8.9223 90.0909 9.00346 89.9015 9.16578C89.7121 9.32809 89.5859 9.54902 89.5228 9.82856H91.5044C91.4863 9.53098 91.3894 9.30555 91.2136 9.15225C91.0422 8.99895 90.8393 8.9223 90.6049 8.9223ZM97.8222 11.9319C97.5516 11.9319 97.3037 11.8575 97.0782 11.7087C96.8573 11.5554 96.6815 11.348 96.5507 11.0865C96.42 10.8205 96.3546 10.5184 96.3546 10.1802C96.3546 9.84209 96.4177 9.54 96.5439 9.27398C96.6702 9.00797 96.8438 8.79831 97.0647 8.64502C97.2856 8.49172 97.5381 8.41507 97.8222 8.41507C98.0747 8.41507 98.2798 8.46241 98.4376 8.55709C98.5999 8.64727 98.7239 8.77351 98.8096 8.93583C98.8953 9.09814 98.9539 9.28526 98.9854 9.49717C99.0215 9.70908 99.0395 9.93677 99.0395 10.1802C99.0395 10.3516 99.0215 10.5387 98.9854 10.7416C98.9494 10.94 98.8862 11.1316 98.7961 11.3164C98.7104 11.4968 98.5887 11.6456 98.4309 11.7628C98.273 11.8755 98.0702 11.9319 97.8222 11.9319ZM97.9574 11.4179C98.1874 11.4179 98.3767 11.3615 98.5255 11.2488C98.6788 11.1361 98.7916 10.9873 98.8637 10.8024C98.9358 10.6131 98.9719 10.4057 98.9719 10.1802C98.9719 9.93226 98.9336 9.71584 98.8569 9.53098C98.7848 9.34162 98.6721 9.19508 98.5188 9.09138C98.37 8.98317 98.1829 8.92907 97.9574 8.92907C97.6193 8.92907 97.3578 9.04855 97.1729 9.28751C96.9881 9.52197 96.8956 9.81954 96.8956 10.1802C96.8956 10.4192 96.9407 10.6334 97.0309 10.8227C97.1256 11.0076 97.2518 11.1541 97.4096 11.2623C97.5719 11.366 97.7545 11.4179 97.9574 11.4179ZM98.9719 7.13008H99.513V11.8643H99.0192C99.0102 11.7651 98.999 11.6478 98.9854 11.5126C98.9764 11.3773 98.9719 11.2691 98.9719 11.1879V7.13008ZM111.28 11.9319C111.032 11.9319 110.83 11.8755 110.672 11.7628C110.514 11.6456 110.39 11.4968 110.3 11.3164C110.214 11.1316 110.153 10.94 110.117 10.7416C110.081 10.5387 110.063 10.3516 110.063 10.1802C110.063 9.93677 110.079 9.70908 110.11 9.49717C110.146 9.28526 110.207 9.09814 110.293 8.93583C110.379 8.77351 110.5 8.64727 110.658 8.55709C110.821 8.46241 111.028 8.41507 111.28 8.41507C111.564 8.41507 111.817 8.49172 112.038 8.64502C112.259 8.79831 112.432 9.00797 112.559 9.27398C112.685 9.54 112.748 9.84209 112.748 10.1802C112.748 10.5184 112.683 10.8205 112.552 11.0865C112.421 11.348 112.245 11.5554 112.024 11.7087C111.803 11.8575 111.555 11.9319 111.28 11.9319ZM111.145 11.4179C111.353 11.4179 111.535 11.366 111.693 11.2623C111.851 11.1541 111.975 11.0076 112.065 10.8227C112.16 10.6334 112.207 10.4192 112.207 10.1802C112.207 9.81954 112.115 9.52197 111.93 9.28751C111.745 9.04855 111.483 8.92907 111.145 8.92907C110.92 8.92907 110.73 8.98317 110.577 9.09138C110.428 9.19508 110.316 9.34162 110.239 9.53098C110.167 9.71584 110.131 9.93226 110.131 10.1802C110.131 10.4057 110.167 10.6131 110.239 10.8024C110.316 10.9873 110.428 11.1361 110.577 11.2488C110.726 11.3615 110.915 11.4179 111.145 11.4179ZM110.131 7.13008V11.1879C110.131 11.2691 110.124 11.3773 110.11 11.5126C110.101 11.6478 110.092 11.7651 110.083 11.8643H109.59V7.13008H110.131ZM116.822 8.4827H117.403L118.614 11.729L118.14 11.8643L116.822 8.4827ZM119.967 8.4827L118.08 13.2169H117.491L118.31 11.3908L119.392 8.4827H119.967Z" fill="white"/>
<path fill-rule="evenodd" clip-rule="evenodd" d="M16.3638 0C25.4012 0 32.7276 7.32631 32.7276 16.3638C32.7276 25.4012 25.4012 32.7276 16.3638 32.7276C7.32631 32.7276 0 25.4012 0 16.3638C0 7.32631 7.32631 0 16.3638 0ZM11.1567 10.2858H11.0243V11.4864H11.1567C11.4308 11.4864 11.6763 11.7233 11.6763 11.9958L11.6763 21.3151C11.6763 21.606 11.4308 21.8245 11.1567 21.8245L11.0243 21.8245V23.0262L11.1567 23.0262C12.1246 23.0262 12.8998 22.2615 12.8998 21.3151L12.8998 11.9958C12.8998 11.0505 12.1246 10.2858 11.1567 10.2858ZM10.0768 10.2858H9.93417C8.98571 10.2858 8.18189 11.0505 8.18189 11.9958L8.18189 21.3151C8.18189 22.2615 8.98571 23.0262 9.93417 23.0262H10.0768V21.8245H9.93417C9.64792 21.8245 9.4146 21.606 9.4146 21.3151L9.4146 11.9958C9.4146 11.7233 9.64792 11.4864 9.93417 11.4864H10.0768V10.2858ZM17.4426 17.6386H16.1793L17.626 23.0262H18.8883L17.4426 17.6386ZM18.9097 10.2858H17.6464L15.9756 15.5998H14.2946L14.2946 23.0262H15.5171V16.7106H17.2083L16.9944 15.9633L18.9097 10.2858ZM22.0373 15.9633V17.8377L22.1087 17.9296C22.4133 18.2747 22.5059 18.6943 22.5059 19.1487V21.3151C22.5059 21.606 22.2604 21.8245 21.9853 21.8245H21.1306C20.8555 21.8245 20.611 21.606 20.611 21.3151V19.3671H19.3885V21.3151C19.3885 22.2615 20.1627 23.0262 21.1306 23.0262H21.9853C22.9339 23.0262 23.7275 22.2615 23.7275 21.3151V19.1487C23.7275 18.4391 23.5543 17.7663 23.0969 17.2211L22.0373 15.9633ZM21.9853 10.2858H21.1306C20.1821 10.2858 19.3885 11.0678 19.3885 11.9958V13.4711C19.3885 14.1797 19.5515 14.8546 19.9997 15.3987L21.0899 16.7106V14.7984L20.9982 14.6901C20.7027 14.3257 20.611 13.9255 20.611 13.4711V11.9958C20.611 11.7233 20.8555 11.4864 21.1306 11.4864H21.9853C22.2604 11.4864 22.5059 11.7233 22.5059 11.9958V13.416H23.7275V11.9958C23.7275 11.0505 22.9339 10.2858 21.9853 10.2858ZM15.5171 10.2858H14.2946V14.6707H15.5171V10.2858Z" fill="white"/>
</svg>
