<svg width="40" height="40" viewBox="0 0 40 40" fill="none" xmlns="http://www.w3.org/2000/svg">
<path d="M36.6668 20.0002V30.0002C36.6668 33.6821 33.6821 36.6668 30.0002 36.6668H10.0002C6.31826 36.6668 3.3335 33.6821 3.3335 30.0002V10.0002C3.3335 6.31826 6.31826 3.3335 10.0002 3.3335H20.0002M26.1441 6.70474C26.1441 6.70474 26.1441 9.08857 28.5279 11.4724C30.9118 13.8562 33.2956 13.8562 33.2956 13.8562M15.258 26.6494L20.264 25.9343C20.9861 25.8311 21.6553 25.4965 22.1711 24.9808L35.6794 11.4724C36.996 10.1558 36.996 8.02129 35.6794 6.70474L33.2956 4.32091C31.979 3.00436 29.8445 3.00436 28.5279 4.32091L15.0196 17.8293C14.5038 18.3451 14.1692 19.0142 14.066 19.7363L13.3509 24.7424C13.192 25.8548 14.1455 26.8084 15.258 26.6494Z" stroke="url(#paint0_linear_233_394)" stroke-width="2.2" stroke-linecap="round"/>
<defs>
<linearGradient id="paint0_linear_233_394" x1="3.3335" y1="3.3335" x2="35.3711" y2="37.8689" gradientUnits="userSpaceOnUse">
<stop stop-color="#D89382"/>
<stop offset="1" stop-color="#894636"/>
</linearGradient>
</defs>
</svg>
