<svg width="40" height="40" viewBox="0 0 40 40" fill="none" xmlns="http://www.w3.org/2000/svg">
<path d="M28.9084 5.91141C27.9978 6.58617 27.4076 7.66868 27.4076 8.88905C27.4076 10.9346 25.7494 12.5928 23.7039 12.5928C21.6584 12.5928 20.0002 14.251 20.0002 16.2965C20.0002 18.342 21.6584 20.0002 23.7039 20.0002C25.7494 20.0002 27.4076 21.6584 27.4076 23.7039C27.4076 25.7494 29.0658 27.4076 31.1113 27.4076H34.9344M28.9084 5.91141C26.3316 4.27875 23.2763 3.3335 20.0002 3.3335C11.4214 3.3335 4.35641 9.81507 3.43522 18.1483M28.9084 5.91141C33.5713 8.86593 36.6668 14.0715 36.6668 20.0002C36.6668 29.2049 29.2049 36.6668 20.0002 36.6668C16.0311 36.6668 12.3861 35.2794 9.52362 32.9631M9.52362 32.9631L14.4446 32.9631C16.4901 32.9631 18.1483 31.3049 18.1483 29.2594C18.1483 27.2139 16.4901 25.5557 14.4446 25.5557C12.3991 25.5557 10.7409 23.8975 10.7409 21.852C10.7409 19.8065 9.0827 18.1483 7.0372 18.1483H3.43522M9.52362 32.9631C5.74769 29.9077 3.3335 25.2358 3.3335 20.0002C3.3335 19.3742 3.368 18.7563 3.43522 18.1483" stroke="url(#paint0_linear_233_391)" stroke-width="2.2" stroke-linecap="round"/>
<defs>
<linearGradient id="paint0_linear_233_391" x1="3.3335" y1="3.3335" x2="35.3711" y2="37.8689" gradientUnits="userSpaceOnUse">
<stop stop-color="#D89382"/>
<stop offset="1" stop-color="#894636"/>
</linearGradient>
</defs>
</svg>
