<svg width="40" height="40" viewBox="0 0 40 40" fill="none" xmlns="http://www.w3.org/2000/svg">
<path d="M13.3333 11.6668H20M13.3333 18.3335H26.6667M13.3333 25.0002H26.6667M8.33333 3.3335H31.6667C33.5076 3.3335 35 4.82588 35 6.66683V31.9241C35 34.2327 32.7098 35.8424 30.5376 35.0604L27.9347 34.1233C27.1213 33.8305 26.226 33.8651 25.4377 34.2199L21.3679 36.0513C20.498 36.4427 19.502 36.4427 18.6321 36.0513L14.5623 34.2199C13.774 33.8651 12.8787 33.8305 12.0653 34.1233L9.4624 35.0604C7.29019 35.8424 5 34.2327 5 31.9241V6.66683C5 4.82588 6.49238 3.3335 8.33333 3.3335Z" stroke="url(#paint0_linear_233_393)" stroke-width="2.2" stroke-linecap="round"/>
<defs>
<linearGradient id="paint0_linear_233_393" x1="5" y1="3.3335" x2="36.8108" y2="34.4964" gradientUnits="userSpaceOnUse">
<stop stop-color="#D89382"/>
<stop offset="1" stop-color="#894636"/>
</linearGradient>
</defs>
</svg>
